<?xml version="1.0"?>
<svg version="1.1" xmlns="http://www.w3.org/2000/svg" xmlns:xlink="http://www.w3.org/1999/xlink" width="640" height="480">
    <desc iVinci="yes" version="4.6" gridStep="20" showGrid="no" snapToGrid="no" codePlatform="0"/>
    <g id="Layer1" name="Layer 1" opacity="1">
        <g id="Shape1">
            <desc shapeID="1" type="0" basicInfo-basicType="0" basicInfo-roundedRectRadius="12" basicInfo-polygonSides="6" basicInfo-starPoints="5" bounding="rect(-104.832,-41.1376,209.664,82.2753)" text="" font-familyName="Helvetica" font-pixelSize="20" font-bold="0" font-underline="0" font-alignment="1" strokeStyle="0" markerStart="0" markerEnd="0" shadowEnabled="0" shadowOffsetX="0" shadowOffsetY="2" shadowBlur="4" shadowOpacity="160" blurEnabled="0" blurRadius="4" transform="matrix(1.47718,0,0,1.44084,329.031,388.727)" pers-center="0,0" pers-size="0,0" pers-start="0,0" pers-end="0,0" locked="0" mesh="" flag=""/>
            <path id="shapePath1" d="M272.158,330.012 C243.648,340.199 201.51,347.704 175.077,368.971 C170.092,383.97 186.916,394.856 197.822,404.143 C242.753,424.478 293.393,448.132 344.061,447.999 C383.469,447.896 425.121,439.625 459.663,418.211 C471.693,410.753 478.122,400.559 482.962,388.992 C484.38,379.444 485.196,370.089 477.415,363.019 C447.909,349.227 424.433,344.68 395.149,333.419 C358.619,327.517 302.38,329.929 272.158,330.012 Z" style="stroke:none;fill-rule:evenodd;fill:#c35c48;fill-opacity:1;"/>
        </g>
        <g id="Shape2">
            <desc shapeID="2" type="0" basicInfo-basicType="0" basicInfo-roundedRectRadius="12" basicInfo-polygonSides="6" basicInfo-starPoints="5" bounding="rect(-73.2397,-53.8141,146.479,107.628)" text="" font-familyName="Helvetica" font-pixelSize="20" font-bold="0" font-underline="0" font-alignment="1" strokeStyle="0" markerStart="0" markerEnd="0" shadowEnabled="0" shadowOffsetX="0" shadowOffsetY="2" shadowBlur="4" shadowOpacity="160" blurEnabled="0" blurRadius="4" transform="matrix(1.47718,0,0,1.44084,337.598,118.963)" pers-center="0,0" pers-size="0,0" pers-start="0,0" pers-end="0,0" locked="0" mesh="" flag=""/>
            <path id="shapePath2" d="M249.24,196.5 C233.676,172.694 218.99,124.286 239.437,94.4142 C242.647,93.7612 243.741,85.0612 246.727,85.4517 C249.385,70.8642 253.896,60.8531 269.765,51.4851 C314.511,33.902 370.99,39.6269 411.781,66.6359 C447.008,95.4908 459.023,148.359 427.758,195.746 C416.158,196.61 411.566,192.231 400.131,190.548 C363.515,159.373 325.467,109.389 271.984,105.054 C235.072,120.787 260.468,178.475 249.24,196.5 Z" style="stroke:none;fill-rule:evenodd;fill:#403b38;fill-opacity:1;"/>
        </g>
        <g id="Shape3">
            <desc shapeID="3" type="0" basicInfo-basicType="0" basicInfo-roundedRectRadius="12" basicInfo-polygonSides="6" basicInfo-starPoints="5" bounding="rect(-43.6888,-52.0696,87.3776,104.139)" text="" font-familyName="Helvetica" font-pixelSize="20" font-bold="0" font-underline="0" font-alignment="1" strokeStyle="0" markerStart="0" markerEnd="0" shadowEnabled="0" shadowOffsetX="0" shadowOffsetY="2" shadowBlur="4" shadowOpacity="160" blurEnabled="0" blurRadius="4" transform="matrix(1.47718,0,0,1.44084,330.613,352.584)" pers-center="0,0" pers-size="0,0" pers-start="0,0" pers-end="0,0" locked="0" mesh="" flag=""/>
            <path id="shapePath3" d="M286.047,279.148 C287.237,289.652 287.982,304.73 287.712,317.025 C284.486,328.102 270.078,324.449 266.076,334.341 C266.623,374.046 298.411,435.009 347.07,426.869 C379,406.346 382.916,366.784 395.149,333.292 C373.411,324.218 356.08,298.647 336.529,281.854 C321.454,273.328 294.565,280.339 286.047,279.148 Z" style="stroke:none;fill-rule:evenodd;fill:#ebb78f;fill-opacity:1;"/>
        </g>
        <g id="Shape4">
            <desc shapeID="4" type="0" basicInfo-basicType="0" basicInfo-roundedRectRadius="12" basicInfo-polygonSides="6" basicInfo-starPoints="5" bounding="rect(-14.8575,-21.8438,29.715,43.6875)" text="" font-familyName="Helvetica" font-pixelSize="20" font-bold="0" font-underline="0" font-alignment="1" strokeStyle="0" markerStart="0" markerEnd="0" shadowEnabled="0" shadowOffsetX="0" shadowOffsetY="2" shadowBlur="4" shadowOpacity="160" blurEnabled="0" blurRadius="4" transform="matrix(1.47718,0,0,1.44084,244.344,196.285)" pers-center="0,0" pers-size="0,0" pers-start="0,0" pers-end="0,0" locked="0" mesh="" flag=""/>
            <path id="shapePath4" d="M235.565,166.058 C215.149,178.72 216.71,233.865 252.762,227.202 C287.941,212.896 244.42,155.701 235.565,166.058 Z" style="stroke:none;fill-rule:evenodd;fill:#ebb78f;fill-opacity:1;"/>
        </g>
        <g id="Shape5">
            <desc shapeID="5" type="0" basicInfo-basicType="0" basicInfo-roundedRectRadius="12" basicInfo-polygonSides="6" basicInfo-starPoints="5" bounding="rect(-10.6084,-19.7475,21.2168,39.495)" text="" font-familyName="Helvetica" font-pixelSize="20" font-bold="0" font-underline="0" font-alignment="1" strokeStyle="0" markerStart="0" markerEnd="0" shadowEnabled="0" shadowOffsetX="0" shadowOffsetY="2" shadowBlur="4" shadowOpacity="160" blurEnabled="0" blurRadius="4" transform="matrix(1.47718,0,0,1.44084,412.087,193.265)" pers-center="0,0" pers-size="0,0" pers-start="0,0" pers-end="0,0" locked="0" mesh="" flag=""/>
            <path id="shapePath5" d="M400.88,218.004 C436.063,238.155 435.197,169.983 407.069,164.812 C390.195,172.495 397.619,213.566 400.88,218.004 Z" style="stroke:none;fill-rule:evenodd;fill:#ebb78f;fill-opacity:1;"/>
        </g>
        <g id="Shape6">
            <desc shapeID="6" type="0" basicInfo-basicType="0" basicInfo-roundedRectRadius="12" basicInfo-polygonSides="6" basicInfo-starPoints="5" bounding="rect(-36.929,-28.7351,73.8579,57.4701)" text="" font-familyName="Helvetica" font-pixelSize="20" font-bold="0" font-underline="0" font-alignment="1" strokeStyle="0" markerStart="0" markerEnd="0" shadowEnabled="0" shadowOffsetX="0" shadowOffsetY="2" shadowBlur="4" shadowOpacity="160" blurEnabled="0" blurRadius="4" transform="matrix(1.47718,0,0,1.44084,340.598,312.07)" pers-center="0,0" pers-size="0,0" pers-start="0,0" pers-end="0,0" locked="0" mesh="" flag=""/>
            <path id="shapePath6" d="M286.047,289.429 C289.876,330.149 364.621,383.206 395.149,333.078 C364.53,318.385 374.528,299.812 373.698,278.607 C352.518,267.084 325.759,270.419 302.69,274.278 C296.18,283.848 289.584,291.78 286.047,289.429 Z" style="stroke:none;fill-rule:evenodd;fill:#d6a783;fill-opacity:1;"/>
        </g>
        <g id="Shape7">
            <desc shapeID="7" type="0" basicInfo-basicType="0" basicInfo-roundedRectRadius="12" basicInfo-polygonSides="6" basicInfo-starPoints="5" bounding="rect(-55.7669,-77.149,111.534,154.298)" text="" font-familyName="Helvetica" font-pixelSize="20" font-bold="0" font-underline="0" font-alignment="1" strokeStyle="0" markerStart="0" markerEnd="0" shadowEnabled="0" shadowOffsetX="0" shadowOffsetY="2" shadowBlur="4" shadowOpacity="160" blurEnabled="0" blurRadius="4" transform="matrix(1.47718,0,0,1.44084,329.105,209.428)" pers-center="0,0" pers-size="0,0" pers-start="0,0" pers-end="0,0" locked="0" mesh="" flag=""/>
            <path id="shapePath7" d="M271.198,98.4205 C261.591,105.975 250.624,123.512 246.789,137.921 C245.18,206.521 274.735,327.572 347.753,320.272 C404.098,314.639 420.418,222.952 407.112,164.976 C382.515,121.982 305.133,96.0365 271.198,98.4205 Z" style="stroke:none;fill-rule:evenodd;fill:#ebb78f;fill-opacity:1;"/>
        </g>
    </g>
</svg>
