<?xml version="1.0"?>
<svg version="1.1" xmlns="http://www.w3.org/2000/svg" xmlns:xlink="http://www.w3.org/1999/xlink" width="640" height="480">
    <desc iVinci="yes" version="4.6" gridStep="20" showGrid="no" snapToGrid="no" codePlatform="0"/>
    <g id="Layer1" name="Layer 1" opacity="1">
      <g id="redhead_girl">
        <path d="M304.966,528.906 C304.966,528.906 306.005,527.982 307.771,527.982 C309.538,527.982 309.122,526.75 311.616,526.339 C314.109,525.928 317.122,524.902 319.2,524.183 C321.278,523.464 321.282,523.256 322.944,522.229 C324.606,521.202 324.435,521.492 325.849,520.384 C327.999,518.7 330.525,516.996 331.771,513.095 C333.018,509.194 333.808,509.915 333.967,509.81 C334.127,509.705 335.164,512.37 335.884,513.336 C336.63,514.336 337.109,515.441 338.707,516.809 C340.304,518.177 342.594,520.703 343.926,521.861 C345.257,523.018 347.423,524.566 348.239,524.808 C348.772,524.966 349.783,524.387 350.156,523.913 C350.222,523.83 352.02,521.598 352.819,520.44 C353.599,519.309 354.363,517.44 353.99,516.441 C353.618,515.441 353.298,515.756 353.458,515.02 C353.618,514.283 353.724,513.915 353.99,513.862 C354.257,513.809 355.109,515.756 355.055,516.177 C355.002,516.598 355.961,519.756 356.334,520.177 C356.706,520.598 357.292,523.229 357.612,524.176 C357.931,525.123 359.691,526.738 359.848,527.018 C360.115,527.491 360.381,529.228 360.594,529.228 C360.807,529.228 361.978,529.807 363.097,530.017 C364.215,530.228 365.919,531.386 367.357,531.175 C368.795,530.965 369.114,531.333 369.913,531.807 C370.712,532.28 371.83,532.491 372.469,533.806 C373.108,535.122 372.949,535.964 372.949,535.964 C372.949,535.964 371.511,537.332 370.073,538.437 C368.635,539.542 361.446,544.647 353.192,546.331 C344.937,548.014 335.725,548.014 329.068,545.699 C322.411,543.384 316.341,540.489 312.24,536.753 C308.14,533.017 304.966,528.906 304.966,528.906 z" fill="#67B452"/>
        <path d="M333.431,512.32 C333.431,512.32 333.906,510.561 334.024,509.331 C334.143,508.1 334.143,507.221 333.312,505.404 C332.482,503.587 329.813,499.133 329.457,498.078 C329.102,497.023 327.797,489.697 328.271,485.36 C328.746,481.023 329.102,479.148 330.347,477.155 C331.592,475.163 332.126,470.696 335.685,468.768 C339.243,466.841 343.276,467.356 344.996,468.768 C346.716,470.181 350.512,476.452 352.35,478.152 C354.189,479.851 356.905,480.672 358.779,481.785 C360.654,482.899 365.813,488.994 365.813,488.818 C365.813,488.642 367.533,491.631 366.406,494.327 C365.28,497.023 363.678,500.891 362.018,502.767 C360.357,504.642 359.171,504.642 358.341,505.756 C357.51,506.869 356.561,507.748 356.205,508.451 C355.85,509.155 354.901,511.147 354.486,512.144 C354.07,513.14 353.951,514.14 354.011,515.191 C354.072,516.243 354.604,519.118 354.426,520.114 C354.248,521.111 351.995,525.154 351.995,525.154 L348.792,526.385 L344.7,524.568 L336.871,519.352 L333.431,512.32 z" fill="#FFE5C7"/>
        <path d="M333.197,506.293 C333.197,506.293 335.526,509.641 336.32,510.425 C337.114,511.21 339.655,513.878 340.237,514.348 C340.819,514.819 342.407,515.447 343.149,515.552 C343.89,515.656 345.689,515.813 346.96,515.499 C348.23,515.185 349.924,513.825 350.824,512.988 C351.724,512.151 353.63,510.948 354.318,510.216 C355.006,509.484 355.588,509.17 356.541,508.228 C357.494,507.287 358.698,506.188 358.698,506.188 L357.335,509.327 L355.906,510.373 C355.906,510.373 355.377,510.53 354.9,510.791 C354.424,511.053 353.365,512.622 352.889,512.988 C352.412,513.355 351.213,514.608 350.624,514.964 C348.077,516.503 346.661,517.761 345.387,518.461 C342.98,519.782 341.015,520.805 340.433,521.118 C339.851,521.432 338.12,519.056 338.12,519.056 L336.32,516.912 L334.573,513.616 L334.202,510.634 C334.202,510.634 334.255,509.065 333.991,508.228 C333.726,507.391 333.197,506.293 333.197,506.293 z" fill="#E5CBAA"/>
        <path d="M325.849,520.384 C325.849,520.384 326.033,523.387 327.098,524.334 C328.163,525.281 330.559,528.491 331.464,529.386 C332.37,530.28 335.192,533.333 335.671,533.911 C336.151,534.49 338.494,537.279 339.133,537.911 C339.772,538.542 346.482,545.436 346.482,545.436 C346.482,545.436 349.304,535.227 349.304,532.543 C349.304,529.859 348.985,524.755 348.985,524.755 C348.985,524.755 352.286,538.121 352.872,539.647 C353.458,541.173 353.671,541.173 353.671,541.173 C353.671,541.173 355.687,537.492 356.021,536.453 C356.356,535.414 357.79,531.257 357.981,530.028 C358.172,528.8 358.698,525.871 358.698,525.871 C358.698,525.871 357.522,524.161 357.67,524.381 C357.818,524.601 357.027,522.451 356.854,521.645 C356.681,520.838 355.271,517.76 355.148,516.88 C355.024,516 354.416,513.972 353.99,513.862 C353.565,513.752 353.318,515.341 353.392,515.487 C353.466,515.634 354.208,515.976 354.035,517.149 C353.862,518.322 351.117,523.453 349.955,524.137 C348.793,524.821 349.015,524.699 349.015,524.699 C349.015,524.699 348.323,525.066 347.334,524.406 C346.345,523.746 341.993,520.57 339.495,517.442 C336.998,514.314 335.281,512.172 334.624,510.991 C333.967,509.81 333.684,509.916 333.684,509.916 C333.684,509.916 333.239,509.794 332.992,510.234 C332.745,510.673 332.077,512.506 331.558,513.532 C331.039,514.559 330.321,516.611 328.343,518.346 C326.365,520.081 325.849,520.384 325.849,520.384 z" fill="#619D51"/>
        <path d="M336.169,486.477 C336.939,486.511 337.136,486.536 337.884,486.734 C338.409,486.907 339.361,487.204 339.912,487.526 C340.462,487.848 340.938,488.243 341.163,488.417 C341.389,488.59 341.639,488.986 341.915,488.986 C342.19,488.986 343.642,489.06 344.043,489.085 C344.443,489.109 345.258,489.184 345.57,489.258 C345.887,489.333 346.146,489.654 346.421,489.48 C346.696,489.307 347.347,488.441 347.698,488.194 C348.048,487.946 348.975,487.418 349.701,487.25 C350.427,487.081 351.804,486.883 352.229,486.883 C352.655,486.883 354.232,486.998 354.683,487.25 C355.134,487.501 356.436,488.07 356.886,488.293 C357.337,488.516 357.957,488.689 358.698,488.961 C359.44,489.233 359.916,489.728 360.116,489.728 C360.316,489.728 360.491,489.827 360.992,489.827 C361.493,489.827 362.67,489.777 362.67,489.777 L363.32,490.371 L362.845,491.014 C362.845,491.014 362.319,491.138 361.818,491.237 C361.318,491.336 360.491,491.534 360.166,491.608 C359.84,491.682 359.265,491.559 359.039,491.781 C358.814,492.004 358.413,493.241 358.288,493.637 C358.163,494.033 357.888,494.898 357.637,495.368 C357.387,495.839 356.799,496.792 356.486,497.125 C356.072,497.564 355.197,498.283 354.846,498.431 C354.496,498.58 353.437,499.137 351.864,499.155 C350.673,499.168 349.198,498.513 348.552,498.088 C347.904,497.661 346.747,496.383 346.421,495.789 C346.096,495.195 345.695,494.057 345.62,493.241 C345.545,492.424 345.679,491.468 345.679,491.147 C345.679,490.825 345.824,490.799 345.649,490.626 C345.474,490.453 345.107,490.195 344.836,490.165 C344.563,490.135 343.74,490.176 343.392,490.198 C342.97,490.225 342.616,490 342.34,490.297 C342.065,490.594 342.24,491.014 342.265,491.484 C342.29,491.954 342.392,493.095 342.167,493.911 C341.941,494.728 341.329,495.562 341.179,495.81 C339.927,497.397 339.465,497.451 338.965,497.726 C338.464,498.001 337.649,498.484 336.147,498.504 C334.757,498.522 334.129,498.304 333.494,497.961 C332.89,497.636 331.925,496.803 331.55,496.432 C331.174,496.061 330.706,495.266 330.448,494.923 C330.214,494.613 330.047,493.81 329.797,493.315 C329.547,492.82 329.246,492.103 329.246,492.103 L328.72,490.618 C328.72,490.618 329.547,488.689 330.148,488.318 C330.748,487.946 332.392,487.087 332.977,486.932 C333.593,486.769 334.814,486.462 336.169,486.492 L336.169,486.477 z M352.358,487.59 C351.662,487.599 351.955,487.595 351.478,487.6 C350.777,487.6 349.475,487.897 348.925,488.144 C348.374,488.392 347.222,489.703 346.847,490.247 C346.471,490.792 346.346,491.163 346.296,492.103 C346.296,492.103 346.321,492.87 346.396,493.439 C346.471,494.008 346.847,495.022 347.247,495.566 C347.648,496.111 348.424,497.001 348.9,497.348 C349.375,497.694 349.932,498.1 350.583,498.323 C351.234,498.546 352.358,498.576 353.053,498.449 C353.624,498.345 354.645,497.889 355.23,497.473 C355.823,497.052 356.164,496.497 356.836,495.467 C357.518,494.424 357.737,493.266 357.662,492.202 C357.587,491.138 357.337,490.346 356.385,489.307 C355.434,488.268 354.433,488.021 353.807,487.773 C353.345,487.596 352.844,487.605 352.358,487.59 z M335.793,487.25 C335.206,487.236 334.629,487.337 334.054,487.438 C332.874,487.657 331.801,488.164 331.224,488.713 C330.523,489.381 330.252,489.912 330.148,491.138 C330.148,491.138 330.375,493.169 330.691,493.972 C331.136,495.101 332.04,495.866 332.426,496.247 C332.811,496.629 333.222,497.01 333.926,497.433 C334.63,497.857 335.068,497.871 336.074,497.871 C337.032,497.871 337.963,497.58 338.735,497.199 C339.506,496.818 340.162,496.309 340.688,495.542 C341.217,494.769 341.687,493.956 341.714,493.142 C341.739,492.4 341.589,491.163 341.163,490.322 C340.889,489.779 339.915,488.755 339.486,488.417 C339.057,488.078 337.783,487.523 336.797,487.353 C336.228,487.267 336.562,487.309 335.793,487.25 z" fill="#2B2339"/>
        <path d="M338.613,522.364 C338.613,522.364 336.887,525.259 336.724,526.192 C336.562,527.125 335.78,529.12 335.91,530.342 C336.041,531.565 336.041,533.077 336.041,533.077 C336.041,533.077 338.613,533.044 339.459,533.044 C340.305,533.044 342.747,532.691 343.659,531.918 C344.57,531.146 345.645,530.728 346.784,530.728 C347.924,530.728 349.258,530.985 349.747,531.565 C350.235,532.144 350.984,533.141 352.579,533.688 C354.174,534.235 357.56,534.589 357.56,534.589 C357.56,534.589 358.698,531.468 358.698,530.406 C358.698,529.345 358.698,526.771 358.698,526.224 C358.698,525.677 358.537,524.294 358.537,524.294 C358.537,524.294 356.323,524.648 354.728,525.227 C353.133,525.806 351.668,526.417 351.407,526.868 C351.147,527.318 349.975,528.026 349.389,528.122 C348.803,528.219 347.891,528.637 347.207,528.058 C346.524,527.479 345.84,526.289 345.189,525.709 C344.538,525.13 343.724,524.616 342.422,524.101 C341.119,523.586 338.613,522.364 338.613,522.364 z" fill="#621E15"/>
        <path d="M334.009,508.773 C334.009,508.773 333.492,509.126 332.459,508.694 C331.425,508.262 330.074,507.399 329.081,506.495 C328.087,505.592 327.94,505.278 326.895,503.511 C325.849,501.743 325.623,500.919 325.345,499.348 C325.067,497.777 324.669,495.499 324.312,493.457 C323.954,491.415 323.596,491.494 323.676,489.412 C323.755,487.331 324.682,481.558 325.265,479.555 C325.849,477.552 328.564,471.426 329.677,469.659 C330.79,467.892 331.863,467.145 333.492,465.889 C335.121,464.632 339.97,462.943 341.838,463.258 C343.706,463.572 343.229,463.925 343.785,463.886 C344.341,463.847 344.898,462.786 345.852,462.59 C346.805,462.394 350.223,462.668 351.813,462.983 C353.402,463.297 359.252,464.907 362.98,469.187 C366.708,473.468 368.623,478.848 369.657,482.422 C370.69,485.996 371.644,493.339 371.167,497.384 C370.69,501.429 369.021,504.414 366.517,507.595 C364.013,510.776 362.384,511.443 360.834,511.915 C359.284,512.386 356.502,513.132 355.588,512.936 C354.674,512.739 354.277,512.622 354.277,512.622 C354.277,512.622 354.714,509.558 355.946,508.341 C357.178,507.124 357.953,506.77 358.698,505.278 C359.443,503.786 359.92,501.311 360.158,500.016 C360.397,498.72 361.828,496.52 362.066,494.557 C362.305,492.593 362.503,491.69 361.907,490.826 C361.311,489.962 361.629,489.844 360.556,489.844 C359.483,489.844 355.032,487.606 353.561,486.781 C352.091,485.956 350.223,484.582 349.031,482.658 C347.839,480.733 345.255,476.492 344.222,474.921 C343.189,473.35 341.838,472.368 341.281,471.74 C340.725,471.112 340.407,470.405 338.499,471.308 C336.592,472.211 335.876,473.586 335.002,474.568 C334.128,475.549 333.571,476.139 332.578,477.709 C331.584,479.28 331.942,481.087 331.505,482.304 C331.068,483.522 331.346,484.543 330.631,486.035 C329.915,487.527 329.677,488.784 329.518,489.726 C329.359,490.669 329.637,492.358 329.875,493.496 C330.114,494.635 330.75,496.638 331.107,498.052 C331.465,499.466 331.783,500.722 332.3,502.175 C332.816,503.628 332.981,505.199 333.197,505.945 C333.412,506.692 333.973,507.88 333.991,508.228 C334.009,508.577 334.009,508.773 334.009,508.773 z" fill="#8A2618"/>
      </g>
    </g>
</svg>
