<?xml version="1.0"?>
<svg version="1.1" xmlns="http://www.w3.org/2000/svg" xmlns:xlink="http://www.w3.org/1999/xlink" width="640" height="480">
    <desc iVinci="yes" version="4.6" gridStep="20" showGrid="no" snapToGrid="no" codePlatform="0"/>
    <g id="Layer1" name="Layer 1" opacity="1">
        <g id="Shape1">
            <desc shapeID="1" type="0" basicInfo-basicType="0" basicInfo-roundedRectRadius="12" basicInfo-polygonSides="6" basicInfo-starPoints="5" bounding="rect(-171.973,-66.7728,343.946,133.546)" text="" font-familyName="Helvetica" font-pixelSize="20" font-bold="0" font-underline="0" font-alignment="1" strokeStyle="0" markerStart="0" markerEnd="0" shadowEnabled="0" shadowOffsetX="0" shadowOffsetY="2" shadowBlur="4" shadowOpacity="160" blurEnabled="0" blurRadius="4" transform="matrix(1,0,0,1,331.32,394.637)" pers-center="0,0" pers-size="0,0" pers-start="0,0" pers-end="0,0" locked="0" mesh="" flag=""/>
            <path id="shapePath1" d="M277.65,329.199 C243.845,349.462 196.143,360.85 160.178,382.151 C156.9,390.635 163.691,395.305 173.972,403.954 C223.663,437.538 282.956,459.585 342.17,461.356 C388.24,462.733 434.036,437.796 471.657,412.854 C489.055,401.319 503.293,389.267 503.293,384.55 C503.293,377.215 481.865,372.882 465.872,365.242 C440.236,352.995 411.666,339.615 386.667,330.979 C361.901,347.333 302.525,358.505 277.65,327.865 L277.65,329.199 Z" style="stroke:none;fill-rule:evenodd;fill:#4ab09b;fill-opacity:1;"/>
        </g>
        <g id="Shape2">
            <desc shapeID="2" type="0" basicInfo-basicType="0" basicInfo-roundedRectRadius="12" basicInfo-polygonSides="6" basicInfo-starPoints="5" bounding="rect(-88.5491,-86.5118,177.098,173.024)" text="" font-familyName="Helvetica" font-pixelSize="20" font-bold="0" font-underline="0" font-alignment="1" strokeStyle="0" markerStart="0" markerEnd="0" shadowEnabled="0" shadowOffsetX="0" shadowOffsetY="2" shadowBlur="4" shadowOpacity="160" blurEnabled="0" blurRadius="4" transform="matrix(1,0,0,1,331.936,180.837)" pers-center="0,0" pers-size="0,0" pers-start="0,0" pers-end="0,0" locked="0" mesh="" flag=""/>
            <path id="shapePath2" d="M247.837,112.944 C245.857,118.769 244.416,124.327 243.387,130.298 C253.788,173.713 254.121,221.614 274.09,262.454 L285.214,267.349 C320.92,260.388 357.226,266.536 391.562,262.454 C414.949,220.652 413.324,167.654 420.485,119.618 C417.903,111.883 418.971,102.177 411.586,96.9249 C406.243,94.8437 400.421,93.6804 394.677,94.7 C388.378,95.6701 382.206,97.6334 375.988,98.7048 C338.09,119.043 275.119,90.0482 248.727,113.834 " style="stroke:none;fill-rule:evenodd;fill:#f9cfb0;fill-opacity:1;"/>
        </g>
        <g id="Shape3">
            <desc shapeID="3" type="0" basicInfo-basicType="0" basicInfo-roundedRectRadius="12" basicInfo-polygonSides="6" basicInfo-starPoints="5" bounding="rect(0,0,0,0)" text="" font-familyName="Helvetica" font-pixelSize="20" font-bold="0" font-underline="0" font-alignment="1" strokeStyle="0" markerStart="0" markerEnd="0" shadowEnabled="0" shadowOffsetX="0" shadowOffsetY="2" shadowBlur="4" shadowOpacity="160" blurEnabled="0" blurRadius="4" transform="matrix(1,0,0,1,238.937,134.747)" pers-center="0,0" pers-size="0,0" pers-start="0,0" pers-end="0,0" locked="0" mesh="" flag=""/>
            <path id="shapePath3" d="M0,0 Z" style="stroke:none;fill-rule:evenodd;fill:#b17749;fill-opacity:1;"/>
        </g>
        <g id="Shape4">
            <desc shapeID="4" type="0" basicInfo-basicType="0" basicInfo-roundedRectRadius="12" basicInfo-polygonSides="6" basicInfo-starPoints="5" bounding="rect(0,0,0,0)" text="" font-familyName="Helvetica" font-pixelSize="20" font-bold="0" font-underline="0" font-alignment="1" strokeStyle="0" markerStart="0" markerEnd="0" shadowEnabled="0" shadowOffsetX="0" shadowOffsetY="2" shadowBlur="4" shadowOpacity="160" blurEnabled="0" blurRadius="4" transform="matrix(1,0,0,1,242.942,162.336)" pers-center="0,0" pers-size="0,0" pers-start="0,0" pers-end="0,0" locked="0" mesh="" flag=""/>
            <path id="shapePath4" d="M0,0 Z" style="stroke:none;fill-rule:evenodd;fill:#b17749;fill-opacity:1;"/>
        </g>
        <g id="Shape5">
            <desc shapeID="5" type="0" basicInfo-basicType="0" basicInfo-roundedRectRadius="12" basicInfo-polygonSides="6" basicInfo-starPoints="5" bounding="rect(-14.3807,-31.5584,28.7614,63.1169)" text="" font-familyName="Helvetica" font-pixelSize="20" font-bold="0" font-underline="0" font-alignment="1" strokeStyle="0" markerStart="0" markerEnd="0" shadowEnabled="0" shadowOffsetX="0" shadowOffsetY="2" shadowBlur="4" shadowOpacity="160" blurEnabled="0" blurRadius="4" transform="matrix(1,0,0,1,238.937,193.894)" pers-center="0,0" pers-size="0,0" pers-start="0,0" pers-end="0,0" locked="0" mesh="" flag=""/>
            <path id="shapePath5" d="M243.529,162.343 C203.423,161.456 236.837,237.689 253.318,223.749 " style="stroke:none;fill-rule:evenodd;fill:#f9cfb0;fill-opacity:1;"/>
        </g>
        <g id="Shape6">
            <desc shapeID="6" type="0" basicInfo-basicType="0" basicInfo-roundedRectRadius="12" basicInfo-polygonSides="6" basicInfo-starPoints="5" bounding="rect(0,0,0,0)" text="" font-familyName="Helvetica" font-pixelSize="20" font-bold="0" font-underline="0" font-alignment="1" strokeStyle="0" markerStart="0" markerEnd="0" shadowEnabled="0" shadowOffsetX="0" shadowOffsetY="2" shadowBlur="4" shadowOpacity="160" blurEnabled="0" blurRadius="4" transform="matrix(1,0,0,1,237.602,186.364)" pers-center="0,0" pers-size="0,0" pers-start="0,0" pers-end="0,0" locked="0" mesh="" flag=""/>
            <path id="shapePath6" d="M0,0 Z" style="stroke:none;fill-rule:evenodd;fill:#b17749;fill-opacity:1;"/>
        </g>
        <g id="Shape7">
            <desc shapeID="7" type="0" basicInfo-basicType="0" basicInfo-roundedRectRadius="12" basicInfo-polygonSides="6" basicInfo-starPoints="5" bounding="rect(-14.6193,-32.4024,29.2385,64.8049)" text="" font-familyName="Helvetica" font-pixelSize="20" font-bold="0" font-underline="0" font-alignment="1" strokeStyle="0" markerStart="0" markerEnd="0" shadowEnabled="0" shadowOffsetX="0" shadowOffsetY="2" shadowBlur="4" shadowOpacity="160" blurEnabled="0" blurRadius="4" transform="matrix(1,0,0,1,425.313,194.738)" pers-center="0,0" pers-size="0,0" pers-start="0,0" pers-end="0,0" locked="0" mesh="" flag=""/>
            <path id="shapePath7" d="M422.265,162.336 C425.637,162.332 428.475,162.997 430.826,164.194 C451.993,174.965 432.486,229.079 410.694,227.087 " style="stroke:none;fill-rule:evenodd;fill:#f9cfb0;fill-opacity:1;"/>
        </g>
        <g id="Shape8">
            <desc shapeID="8" type="0" basicInfo-basicType="0" basicInfo-roundedRectRadius="12" basicInfo-polygonSides="6" basicInfo-starPoints="5" bounding="rect(-101.068,-167.983,202.136,335.967)" text="" font-familyName="Helvetica" font-pixelSize="20" font-bold="0" font-underline="0" font-alignment="1" strokeStyle="0" markerStart="0" markerEnd="0" shadowEnabled="0" shadowOffsetX="0" shadowOffsetY="2" shadowBlur="4" shadowOpacity="160" blurEnabled="0" blurRadius="4" transform="matrix(1,0,0,1,333.048,186.573)" pers-center="0,0" pers-size="0,0" pers-start="0,0" pers-end="0,0" locked="0" mesh="" flag=""/>
            <path id="shapePath8" d="M244.114,186.58 C245.15,179.271 234.048,117.571 234.325,108.933 C216.701,45.4365 302.515,2.44031 355.802,24.3886 C379.81,40.3802 419.156,47.5861 419.877,83.5696 C424.033,90.1406 431.794,93.2127 433.671,101.368 C433.587,106.449 433.638,111.508 434.116,116.497 C426.248,124.93 427.044,150.685 422.547,160.55 L400.299,180.268 L406.083,152.763 C406.083,127.702 419.877,123.84 402.078,107.598 C362.366,134.074 310.559,109.889 265.918,108.488 C230.847,112.802 247.902,154.675 256.573,176.013 M244.114,186.58 C246.195,202.229 251.135,217.086 252.568,225.96 C257.179,254.511 250.709,287.002 264.138,313.619 C277.051,339.217 310.622,354.455 339.783,354.557 C372.051,350.342 398.553,318.754 402.078,306.513 C406.532,291.048 406.718,249.955 410.533,229.075 C413.736,211.539 421.956,178.398 422.547,160.55 L400.299,180.268 C393.745,202.133 411.937,247.564 380.72,256.663 C363.822,250.793 348.63,237.253 328.658,247.319 C312.214,236.459 298.324,255.181 282.826,258.888 C257.938,241.386 263.876,202.091 256.573,176.013 L244.114,186.58 " style="stroke:none;fill-rule:evenodd;fill:#b17749;fill-opacity:1;"/>
        </g>
        <g id="Shape9">
            <desc shapeID="9" type="0" basicInfo-basicType="0" basicInfo-roundedRectRadius="12" basicInfo-polygonSides="6" basicInfo-starPoints="5" bounding="rect(-34.4852,-21.8035,68.9704,43.6071)" text="" font-familyName="Helvetica" font-pixelSize="20" font-bold="0" font-underline="0" font-alignment="1" strokeStyle="0" markerStart="0" markerEnd="0" shadowEnabled="0" shadowOffsetX="0" shadowOffsetY="2" shadowBlur="4" shadowOpacity="160" blurEnabled="0" blurRadius="4" transform="matrix(1,0,0,1,335.273,351.003)" pers-center="0,0" pers-size="0,0" pers-start="0,0" pers-end="0,0" locked="0" mesh="" flag=""/>
            <path id="shapePath9" d="M0,0 Z" style="stroke:none;fill-rule:evenodd;fill:#b17749;fill-opacity:0.0980392;"/>
        </g>
        <g id="Shape10">
            <desc shapeID="10" type="0" basicInfo-basicType="0" basicInfo-roundedRectRadius="12" basicInfo-polygonSides="6" basicInfo-starPoints="5" bounding="rect(-63.0987,-23.3101,126.197,46.6202)" text="" font-familyName="Helvetica" font-pixelSize="20" font-bold="0" font-underline="0" font-alignment="1" strokeStyle="0" markerStart="0" markerEnd="0" shadowEnabled="0" shadowOffsetX="0" shadowOffsetY="2" shadowBlur="4" shadowOpacity="160" blurEnabled="0" blurRadius="4" transform="matrix(1,0,0,1,333.343,353.412)" pers-center="0,0" pers-size="0,0" pers-start="0,0" pers-end="0,0" locked="0" mesh="" flag=""/>
            <path id="shapePath10" d="M270.244,333.363 C277.183,370.733 330.631,386.436 364.419,370.582 C378.006,362.908 393.481,349.629 396.441,334.387 C392.305,332.416 385.309,330.102 385.309,330.102 C385.309,330.102 364.419,348.052 353.295,350.496 C343.866,352.568 334.039,353.024 323.927,352.783 C307.801,352.398 276.229,330.102 276.229,330.102 C276.229,330.102 272.615,331.79 270.244,333.363 Z" style="stroke:none;fill-rule:evenodd;fill:#f9cfb0;fill-opacity:1;"/>
        </g>
    </g>
</svg>
