<?xml version="1.0" encoding="UTF-8"?>
<!DOCTYPE svg PUBLIC "-//W3C//DTD SVG 1.1//EN" "http://www.w3.org/Graphics/SVG/1.1/DTD/svg11.dtd">
<svg version="1.1" xmlns="http://www.w3.org/2000/svg" xmlns:xlink="http://www.w3.org/1999/xlink" x="0" y="0" width="162.209" height="280.584" viewBox="0, 0, 162.209, 280.584">
  <defs>
    <linearGradient id="Gradient_1" gradientUnits="userSpaceOnUse" x1="233.5" y1="405.5" x2="377.5" y2="405.5">
      <stop offset="0" stop-color="#FF4200"/>
      <stop offset="0.502" stop-color="#FFE1D6"/>
      <stop offset="0.98" stop-color="#FF4200"/>
    </linearGradient>
    <radialGradient id="Gradient_2" gradientUnits="userSpaceOnUse" cx="306.75" cy="287" r="41.752">
      <stop offset="0" stop-color="#FFFFFF"/>
      <stop offset="1" stop-color="#FF4200"/>
    </radialGradient>
    <radialGradient id="Gradient_3" gradientUnits="userSpaceOnUse" cx="247.895" cy="234.916" r="10">
      <stop offset="0" stop-color="#FFFFFF"/>
      <stop offset="1" stop-color="#FF4200"/>
    </radialGradient>
    <radialGradient id="Gradient_4" gradientUnits="userSpaceOnUse" cx="364.104" cy="234.916" r="10">
      <stop offset="0" stop-color="#FFFFFF"/>
      <stop offset="1" stop-color="#FF4200"/>
    </radialGradient>
  </defs>
  <g id="Layer_1" transform="translate(-224.395, -211.416)">
    <g>
      <g>
        <path d="M233.5,322.5 L377.5,322.5 L377.5,488.5 L233.5,488.5 L233.5,322.5 z" fill="url(#Gradient_1)"/>
        <path d="M233.5,322.5 L377.5,322.5 L377.5,488.5 L233.5,488.5 L233.5,322.5 z" fill-opacity="0" stroke="#000000" stroke-width="6" stroke-linejoin="round"/>
      </g>
      <text transform="matrix(1, 0, 0, 1, 270, 448.5)">
        <tspan x="-27.8" y="-17.5" font-family="HelveticaNeue-Bold" font-size="20" fill="#000000">10101</tspan>
        <tspan x="-27.8" y="7.5" font-family="HelveticaNeue-Bold" font-size="20" fill="#000000">00101</tspan>
        <tspan x="-27.8" y="32.5" font-family="HelveticaNeue-Bold" font-size="20" fill="#000000">01010</tspan>
      </text>
      <g>
        <path d="M298.894,399.038 C301.581,397.313 304.014,395.208 306.123,392.795 L313.725,397.308 L320.647,384.982 L313.06,380.478 C314.025,377.451 314.592,374.239 314.698,370.91 L323.329,369.345 L320.924,355.329 L312.295,356.893 C311.102,353.855 309.502,351.029 307.562,348.49 L313.203,341.579 L302.598,332.431 L296.962,339.336 C294.209,337.819 291.228,336.685 288.086,336.005 L288.086,327 L274.242,327 L274.242,336.005 C271.1,336.685 268.119,337.819 265.366,339.336 L259.73,332.431 L249.125,341.579 L254.765,348.49 C252.825,351.029 251.225,353.855 250.033,356.894 L241.403,355.329 L239,369.346 L247.63,370.91 C247.736,374.24 248.304,377.451 249.268,380.479 L241.681,384.982 L248.603,397.308 L256.205,392.796 C258.313,395.208 260.747,397.314 263.434,399.039 L260.433,407.515 L273.442,412.382 L276.439,403.918 C277.983,404.143 279.561,404.262 281.164,404.262 C282.768,404.262 284.345,404.143 285.89,403.918 L288.886,412.383 L301.895,407.514 L298.894,399.038 z M281.164,387.939 C271.415,387.939 263.484,379.786 263.484,369.763 C263.484,359.741 271.415,351.587 281.164,351.587 C290.912,351.587 298.843,359.741 298.843,369.763 C298.843,379.786 290.912,387.939 281.164,387.939 z" fill="#000000"/>
        <path d="M358.398,409.726 L352.431,411.711 C351.293,409.678 349.886,407.837 348.267,406.234 L351.602,400.761 L343.204,395.352 L339.871,400.82 C337.774,400.024 335.552,399.523 333.259,399.361 L332.393,392.976 L322.578,394.383 L323.444,400.767 C321.282,401.568 319.276,402.676 317.47,404.03 L312.812,399.707 L306.172,407.27 L310.834,411.598 C309.703,413.595 308.841,415.761 308.288,418.037 L302.019,417.804 L301.66,427.985 L307.929,428.219 C308.325,430.569 309.036,432.786 310.011,434.836 L305.065,438.8 L311.157,446.835 L316.113,442.865 C317.839,444.36 319.768,445.605 321.838,446.557 L320.524,452.872 L330.215,455 L331.528,448.695 C332.644,448.698 333.773,448.62 334.91,448.458 C336.047,448.295 337.155,448.05 338.227,447.735 L341.166,453.431 L349.921,448.658 L346.979,442.955 C348.719,441.458 350.24,439.717 351.504,437.793 L357.327,440.221 L361.05,430.779 L355.239,428.356 C355.63,426.112 355.724,423.777 355.481,421.405 L361.45,419.419 L358.398,409.726 z M333.343,436.886 C326.43,437.875 320.023,432.9 319.061,425.794 C318.097,418.688 322.937,412.101 329.849,411.111 C336.761,410.12 343.166,415.096 344.131,422.203 C345.093,429.309 340.254,435.894 333.343,436.886 z" fill="#000000"/>
        <path d="M371.767,374.419 L372,366.379 L367.051,366.228 C366.741,364.456 366.186,362.701 365.373,361.014 L369.259,357.858 L364.411,351.548 L360.525,354.703 C359.139,353.519 357.606,352.554 355.979,351.825 L356.983,346.834 L349.324,345.203 L348.317,350.191 C346.552,350.194 344.775,350.451 343.034,350.978 L340.687,346.497 L333.798,350.312 L336.145,354.793 C334.76,355.996 333.571,357.383 332.597,358.895 L327.994,357.012 L325.101,364.485 L329.708,366.371 C329.404,368.169 329.345,370.014 329.544,371.855 L324.842,373.454 L327.297,381.091 L331.999,379.493 C332.92,381.12 334.04,382.56 335.31,383.802 L332.709,388.133 L339.365,392.359 L341.972,388.02 C343.65,388.639 345.41,389.016 347.196,389.135 L347.911,394.179 L355.653,393.017 L354.939,387.978 C355.766,387.666 356.581,387.29 357.379,386.848 C358.178,386.407 358.932,385.912 359.641,385.376 L363.339,388.761 L368.542,382.755 L364.841,379.366 C365.729,377.767 366.389,376.048 366.811,374.267 L371.767,374.419 z M353.126,378.727 C348.274,381.413 342.202,379.54 339.591,374.554 C336.978,369.567 338.8,363.323 343.651,360.639 C348.501,357.953 354.572,359.826 357.186,364.813 C359.796,369.8 357.976,376.041 353.126,378.727 z" fill="#000000"/>
      </g>
      <g>
        <path d="M250.25,322.5 C251.75,294.5 261.75,252.5 306.75,251.5 C351.75,252.5 361.75,294.5 363.25,322.5" fill="url(#Gradient_2)"/>
        <path d="M250.25,322.5 C251.75,294.5 261.75,252.5 306.75,251.5 C351.75,252.5 361.75,294.5 363.25,322.5" fill-opacity="0" stroke="#000000" stroke-width="6"/>
      </g>
      <path d="M250.25,322.5 L360.75,322.5" fill-opacity="0" stroke="#000000" stroke-width="6"/>
      <path d="M281.355,306.485 L329.645,306.485" fill-opacity="0" stroke="#000000" stroke-width="6"/>
      <g>
        <path d="M270.675,279.582 L297.41,279.749" fill-opacity="0" stroke="#000000" stroke-width="6"/>
        <path d="M314.59,279.582 L341.325,279.749" fill-opacity="0" stroke="#000000" stroke-width="6"/>
      </g>
      <path d="M270.675,263.9 L255.524,243.965" fill-opacity="0" stroke="#000000" stroke-width="6"/>
      <g>
        <path d="M257.895,234.916 C257.895,240.439 253.418,244.916 247.895,244.916 C242.372,244.916 237.895,240.439 237.895,234.916 C237.895,229.393 242.372,224.916 247.895,224.916 C253.418,224.916 257.895,229.393 257.895,234.916" fill="url(#Gradient_3)"/>
        <path d="M257.895,234.916 C257.895,240.439 253.418,244.916 247.895,244.916 C242.372,244.916 237.895,240.439 237.895,234.916 C237.895,229.393 242.372,224.916 247.895,224.916 C253.418,224.916 257.895,229.393 257.895,234.916" fill-opacity="0" stroke="#000000" stroke-width="6"/>
      </g>
      <path d="M341.325,263.9 L356.476,243.965" fill-opacity="0" stroke="#000000" stroke-width="6"/>
      <g>
        <path d="M354.104,234.916 C354.104,240.439 358.581,244.916 364.104,244.916 C369.627,244.916 374.104,240.439 374.104,234.916 C374.104,229.393 369.627,224.916 364.104,224.916 C358.581,224.916 354.104,229.393 354.104,234.916" fill="url(#Gradient_4)"/>
        <path d="M354.104,234.916 C354.104,240.439 358.581,244.916 364.104,244.916 C369.627,244.916 374.104,240.439 374.104,234.916 C374.104,229.393 369.627,224.916 364.104,224.916 C358.581,224.916 354.104,229.393 354.104,234.916" fill-opacity="0" stroke="#000000" stroke-width="6"/>
      </g>
    </g>
  </g>
</svg>
