<?xml version="1.0" encoding="UTF-8"?>
<!DOCTYPE svg PUBLIC "-//W3C//DTD SVG 1.1//EN" "http://www.w3.org/Graphics/SVG/1.1/DTD/svg11.dtd">
<svg version="1.1" xmlns="http://www.w3.org/2000/svg" xmlns:xlink="http://www.w3.org/1999/xlink" x="0" y="0" width="640" height="480">
  <g id="Layer_1">
    <path d="M209.679,132.163 L216.125,183.476 L221.399,223.584 C221.399,223.584 210.265,222.994 206.163,225.353 C202.061,227.712 204.405,247.176 206.749,256.023 C209.093,264.87 212.609,282.565 217.883,287.873 C223.157,293.181 233.119,296.13 233.119,296.13 C233.119,296.13 247.183,359.24 253.629,371.036 C260.075,382.833 262.419,382.243 262.419,382.243 L245.067,418.173 L245.425,504.923 L309.885,555.647 L401.3,570.393 L462.83,556.827 L479.824,483.69 L468.69,437.685 L447.594,404.066 L443.646,403.585 C443.646,403.585 444.664,396.398 453.454,379.294 C462.244,362.189 465.76,355.701 468.69,341.546 C471.62,327.39 473.964,279.616 473.964,279.616 C473.964,279.616 480.41,273.128 481.582,259.562 C482.754,245.996 489.2,213.557 483.926,208.248 C478.652,202.94 475.136,205.299 475.136,205.299 L468.104,132.163 L451.11,83.208 L413.606,48.999 L356.178,42.511 L285.273,44.871 L255.973,55.487 L216.711,106.801 L209.679,132.163 z" fill="#F9B096"/>
    <g>
      <path d="M223.657,244.727 C223.657,244.727 221.899,225.263 218.383,218.775 C214.867,212.287 210.765,204.62 210.179,199.901 C209.593,195.183 203.733,177.488 199.631,170.411 C195.529,163.333 198.459,139.151 200.217,130.304 C201.975,121.456 208.421,116.148 208.421,108.481 C208.421,100.813 206.663,97.864 208.421,92.556 C210.179,87.247 213.109,89.017 215.453,86.068 C217.797,83.119 230.103,57.757 234.205,54.218 C238.307,50.679 247.097,45.961 250.613,43.011 C254.129,40.062 265.849,22.958 277.569,19.419 C289.289,15.88 295.735,14.701 301.009,9.982 C306.283,5.264 310.385,-0.045 315.659,0.545 C320.933,1.135 363.124,9.982 378.36,16.47 C393.596,22.958 411.176,36.524 423.482,45.961 C435.788,55.398 469.19,86.658 473.292,105.531 C477.394,124.405 473.878,160.384 473.878,171.001 C473.878,181.617 475.636,205.799 475.636,205.799 C475.636,205.799 469.19,153.896 464.502,134.432 C459.814,114.968 452.782,83.119 442.234,80.17 C431.686,77.221 421.724,76.041 415.864,78.4 C410.004,80.759 401.214,73.682 387.15,67.194 C373.086,60.706 356.092,68.963 347.888,82.529 C339.685,96.095 325.035,89.607 320.347,89.017 C315.659,88.427 295.149,72.502 278.155,77.221 C261.161,81.939 265.263,91.966 253.543,101.993 C241.823,112.019 230.689,104.942 224.829,112.019 C218.969,119.097 218.969,130.304 218.969,140.33 C218.969,150.357 223.657,192.824 223.657,203.44 C223.657,214.057 223.657,244.727 223.657,244.727 z" fill="#0B0801"/>
      <path d="M223.657,244.727 C223.657,244.727 221.899,225.263 218.383,218.775 C214.867,212.287 210.765,204.62 210.179,199.901 C209.593,195.183 203.733,177.488 199.631,170.411 C195.529,163.333 198.459,139.151 200.217,130.304 C201.975,121.456 208.421,116.148 208.421,108.481 C208.421,100.813 206.663,97.864 208.421,92.556 C210.179,87.247 213.109,89.017 215.453,86.068 C217.797,83.119 230.103,57.757 234.205,54.218 C238.307,50.679 247.097,45.961 250.613,43.011 C254.129,40.062 265.849,22.958 277.569,19.419 C289.289,15.88 295.735,14.701 301.009,9.982 C306.283,5.264 310.385,-0.045 315.659,0.545 C320.933,1.135 363.124,9.982 378.36,16.47 C393.596,22.958 411.176,36.524 423.482,45.961 C435.788,55.398 469.19,86.658 473.292,105.531 C477.394,124.405 473.878,160.384 473.878,171.001 C473.878,181.617 475.636,205.799 475.636,205.799 C475.636,205.799 469.19,153.896 464.502,134.432 C459.814,114.968 452.782,83.119 442.234,80.17 C431.686,77.221 421.724,76.041 415.864,78.4 C410.004,80.759 401.214,73.682 387.15,67.194 C373.086,60.706 356.092,68.963 347.888,82.529 C339.685,96.095 325.035,89.607 320.347,89.017 C315.659,88.427 295.149,72.502 278.155,77.221 C261.161,81.939 265.263,91.966 253.543,101.993 C241.823,112.019 230.689,104.942 224.829,112.019 C218.969,119.097 218.969,130.304 218.969,140.33 C218.969,150.357 223.657,192.824 223.657,203.44 C223.657,214.057 223.657,244.727 223.657,244.727 z" fill-opacity="0" stroke="#000000" stroke-width="1"/>
    </g>
    <path d="M229.603,279.026 C229.603,279.026 234.529,308.613 236.635,315.594 C238.711,322.475 242.609,343.916 249.641,360.431 C256.673,376.945 259.489,382.243 267.107,391.68 C274.725,401.117 287.031,412.913 298.751,424.119 C310.471,435.326 329.809,442.404 343.287,442.993 C356.764,443.583 372.586,444.173 381.962,443.583 C391.338,442.993 416.536,430.017 424.154,422.94 C431.772,415.862 453.454,384.602 455.212,376.934 C456.97,369.267 468.248,355.48 470.448,327.98 C471.483,315.033 475.136,285.514 475.136,276.667 C475.136,267.819 468.527,290.158 464.588,299.079 C459.9,309.696 452.282,329.16 445.836,329.16 C439.39,329.16 427.253,322.077 418.88,315.594 C411.262,309.696 397.198,303.208 387.822,302.028 C381.4,301.22 370.828,309.696 364.382,309.106 C357.858,308.509 352.662,300.259 346.216,302.618 C339.771,304.978 308.127,315.004 302.267,321.492 C294.613,329.966 287.617,342.725 282.343,344.495 C277.069,346.264 271.209,349.213 265.349,343.315 C259.489,337.417 251.285,325.621 247.183,316.184 C245.018,311.202 229.603,279.026 229.603,279.026 z" fill="#0B0801" fill-opacity="0.305"/>
    <path d="M259.968,382.243 C259.968,382.243 244.839,393.971 243.111,399.189 C241.382,404.408 235.765,413.975 232.741,423.108 C229.716,432.24 225.396,447.896 225.396,447.896 C225.396,447.896 215.458,451.375 212.434,453.985 C209.409,456.594 202.928,461.812 197.311,464.422 C191.694,467.031 160.585,479.643 154.104,483.122 C147.623,486.601 105.712,507.91 94.047,513.129 C82.381,518.347 53,532.263 53,532.263 C53,532.263 97.935,582.71 135.093,603.584 C172.251,624.458 228.852,652.628 288.046,652.628 C347.239,652.628 406.001,643.593 446.183,624.893 C486.366,606.193 523.524,578.796 547.72,554.007 C571.915,529.219 600,487.47 600,487.47 C600,487.47 562.842,468.771 542.967,463.552 C523.092,458.333 523.145,459.361 510.994,457.464 C464.34,450.177 439.794,387.507 444.624,392.369 C445.053,392.8 437.974,400.494 437.542,408.322 C437.11,416.15 442.295,431.091 444.455,437.459 C446.615,443.827 450.936,460.943 449.208,471.38 C447.479,481.817 434.085,518.782 429.765,523.566 C425.444,528.349 421.555,537.917 415.938,544.005 C410.321,550.094 392.607,535.742 389.582,532.698 C386.558,529.654 371.003,519.217 366.25,518.782 C361.498,518.347 355.881,511.824 348.968,507.91 C342.054,503.996 318.291,492.254 300.576,477.468 C282.861,462.682 254.344,433.98 252.616,425.282 C250.888,416.585 259.968,382.243 259.968,382.243 z" fill="#D3DEF1"/>
  </g>
</svg>
